<svg width="40" height="40" viewBox="0 0 40 40" fill="none" xmlns="http://www.w3.org/2000/svg">
<path fill-rule="evenodd" clip-rule="evenodd" d="M20 40C31.0457 40 40 31.0457 40 20C40 8.95432 31.0457 0 20 0C8.95432 0 0 8.95432 0 20C0 31.0457 8.95432 40 20 40ZM20 37.6C29.7202 37.6 37.6 29.7202 37.6 20C37.6 10.2798 29.7202 2.4 20 2.4C10.2798 2.4 2.4 10.2798 2.4 20C2.4 29.7202 10.2798 37.6 20 37.6Z" fill="black"/>
<path d="M18.2141 23.8344C18.2328 22.7187 18.3594 21.8375 18.5938 21.1906C18.8282 20.5438 19.3063 19.8266 20.0282 19.039L21.8703 17.1406C22.6579 16.25 23.0516 15.2938 23.0516 14.2718C23.0516 13.2875 22.7938 12.5187 22.2782 11.9656C21.7625 11.4031 21.0125 11.1218 20.0282 11.1218C19.0719 11.1218 18.3031 11.375 17.7219 11.8813C17.1407 12.3875 16.85 13.0672 16.85 13.9203H14.2484C14.2672 12.4016 14.8063 11.1782 15.8656 10.25C16.9344 9.31247 18.3219 8.84375 20.0282 8.84375C21.8 8.84375 23.1782 9.32183 24.1625 10.2782C25.1563 11.225 25.6531 12.5282 25.6531 14.1875C25.6531 15.8282 24.8938 17.4453 23.3751 19.039L21.8422 20.5578C21.1579 21.3172 20.8156 22.4094 20.8156 23.8344H18.2141ZM18.1016 28.2922C18.1016 27.8703 18.2282 27.5187 18.4813 27.2375C18.7438 26.9469 19.1282 26.8016 19.6344 26.8016C20.1407 26.8016 20.525 26.9469 20.7875 27.2375C21.05 27.5187 21.1813 27.8703 21.1813 28.2922C21.1813 28.7141 21.05 29.0656 20.7875 29.3469C20.525 29.6187 20.1407 29.7547 19.6344 29.7547C19.1282 29.7547 18.7438 29.6187 18.4813 29.3469C18.2282 29.0656 18.1016 28.7141 18.1016 28.2922Z" fill="black"/>
</svg>
