<svg width="1320" height="510" viewBox="0 0 1320 510" fill="none" xmlns="http://www.w3.org/2000/svg">
<path d="M11 26C11 17.7157 17.7157 11 26 11H1305C1313.28 11 1320 17.7157 1320 26V455.529C1320 463.191 1314.22 469.622 1306.61 470.442L1157.5 486.5L990.5 499.5L660 510L325 499.5L162.5 486.5L24.2788 470.534C16.7107 469.66 11 463.251 11 455.633V26Z" fill="#484848"/>
<rect x="47" y="42" width="50" height="40" fill="#C4C4C4"/>
<rect x="132" y="47" width="40" height="30" fill="#C4C4C4"/>
<rect x="212" y="47" width="40" height="30" fill="#C4C4C4"/>
<rect x="292" y="47" width="40" height="30" fill="#C4C4C4"/>
<rect x="542" y="47" width="40" height="30" fill="#C4C4C4"/>
<rect x="622" y="47" width="40" height="30" fill="#C4C4C4"/>
<rect x="702" y="47" width="40" height="30" fill="#C4C4C4"/>
<rect x="372" y="47" width="40" height="30" fill="#C4C4C4"/>
<rect x="462" y="47" width="40" height="30" fill="#C4C4C4"/>
<rect x="872" y="47" width="40" height="30" fill="#C4C4C4"/>
<rect x="952" y="47" width="40" height="30" fill="#C4C4C4"/>
<rect x="1032" y="47" width="40" height="30" fill="#C4C4C4"/>
<rect x="792" y="47" width="40" height="30" fill="#C4C4C4"/>
<rect x="1107" y="47" width="40" height="30" fill="#C4C4C4"/>
<rect x="1172" y="47" width="40" height="30" fill="#C4C4C4"/>
<rect x="1237" y="47" width="40" height="30" fill="#C4C4C4"/>
<rect x="1107" y="112" width="40" height="30" fill="#C4C4C4"/>
<rect x="1172" y="112" width="40" height="30" fill="#C4C4C4"/>
<rect x="1237" y="112" width="40" height="30" fill="#C4C4C4"/>
<rect x="1107" y="157" width="40" height="30" fill="#C4C4C4"/>
<rect x="1172" y="157" width="40" height="30" fill="#C4C4C4"/>
<rect x="1237" y="157" width="40" height="30" fill="#C4C4C4"/>
<rect x="1172" y="332" width="40" height="40" fill="#C4C4C4"/>
<rect x="1107" y="387" width="40" height="40" fill="#C4C4C4"/>
<rect x="1172" y="387" width="40" height="40" fill="#C4C4C4"/>
<rect x="1237" y="387" width="40" height="40" fill="#C4C4C4"/>
<rect x="47" y="112" width="45" height="45" fill="#C4C4C4"/>
<rect x="117" y="112" width="45" height="45" fill="#C4C4C4"/>
<rect x="187" y="112" width="45" height="45" fill="#C4C4C4"/>
<rect x="257" y="112" width="45" height="45" fill="#C4C4C4"/>
<rect x="327" y="112" width="45" height="45" fill="#C4C4C4"/>
<rect x="397" y="112" width="45" height="45" fill="#C4C4C4"/>
<rect x="467" y="112" width="45" height="45" fill="#C4C4C4"/>
<rect x="537" y="112" width="45" height="45" fill="#C4C4C4"/>
<rect x="607" y="112" width="45" height="45" fill="#C4C4C4"/>
<rect x="677" y="112" width="45" height="45" fill="#C4C4C4"/>
<rect x="747" y="112" width="45" height="45" fill="#C4C4C4"/>
<rect x="817" y="112" width="45" height="45" fill="#C4C4C4"/>
<rect x="887" y="112" width="45" height="45" fill="#C4C4C4"/>
<rect x="957" y="112" width="45" height="45" fill="#C4C4C4"/>
<rect x="1027" y="112" width="45" height="45" fill="#C4C4C4"/>
<rect x="47" y="372" width="55" height="45" fill="#C4C4C4"/>
<rect x="127" y="372" width="55" height="45" fill="#C4C4C4"/>
<rect x="207" y="372" width="55" height="45" fill="#C4C4C4"/>
<rect x="300" y="372" width="448" height="45" fill="#C4C4C4"/>
<rect x="777" y="372" width="55" height="45" fill="#C4C4C4"/>
<rect x="857" y="372" width="55" height="45" fill="#C4C4C4"/>
<rect x="937" y="372" width="55" height="45" fill="#C4C4C4"/>
<rect x="1017" y="372" width="55" height="45" fill="#C4C4C4"/>
<rect x="47" y="177" width="80" height="45" fill="#C4C4C4"/>
<rect x="152" y="177" width="45" height="45" fill="#C4C4C4"/>
<rect x="222" y="177" width="45" height="45" fill="#C4C4C4"/>
<rect x="292" y="177" width="45" height="45" fill="#C4C4C4"/>
<rect x="362" y="177" width="45" height="45" fill="#C4C4C4"/>
<rect x="432" y="177" width="45" height="45" fill="#C4C4C4"/>
<rect x="502" y="177" width="45" height="45" fill="#C4C4C4"/>
<rect x="572" y="177" width="45" height="45" fill="#C4C4C4"/>
<rect x="642" y="177" width="45" height="45" fill="#C4C4C4"/>
<rect x="712" y="177" width="45" height="45" fill="#C4C4C4"/>
<rect x="782" y="177" width="45" height="45" fill="#C4C4C4"/>
<rect x="852" y="177" width="45" height="45" fill="#C4C4C4"/>
<rect x="922" y="177" width="45" height="45" fill="#C4C4C4"/>
<rect x="47" y="242" width="112" height="45" fill="#C4C4C4"/>
<rect x="183" y="242" width="45" height="45" fill="#C4C4C4"/>
<rect x="253" y="242" width="45" height="45" fill="#C4C4C4"/>
<rect x="323" y="242" width="45" height="45" fill="#C4C4C4"/>
<rect x="393" y="242" width="45" height="45" fill="#C4C4C4"/>
<rect x="463" y="242" width="45" height="45" fill="#C4C4C4"/>
<rect x="533" y="242" width="45" height="45" fill="#C4C4C4"/>
<rect x="603" y="242" width="45" height="45" fill="#C4C4C4"/>
<rect x="673" y="242" width="45" height="45" fill="#C4C4C4"/>
<rect x="743" y="242" width="45" height="45" fill="#C4C4C4"/>
<rect x="813" y="242" width="45" height="45" fill="#C4C4C4"/>
<rect x="883" y="242" width="45" height="45" fill="#C4C4C4"/>
<rect x="47" y="307" width="149" height="45" fill="#C4C4C4"/>
<rect x="221" y="307" width="45" height="45" fill="#C4C4C4"/>
<rect x="291" y="307" width="45" height="45" fill="#C4C4C4"/>
<rect x="361" y="307" width="45" height="45" fill="#C4C4C4"/>
<rect x="431" y="307" width="45" height="45" fill="#C4C4C4"/>
<rect x="501" y="307" width="45" height="45" fill="#C4C4C4"/>
<rect x="571" y="307" width="45" height="45" fill="#C4C4C4"/>
<rect x="641" y="307" width="45" height="45" fill="#C4C4C4"/>
<rect x="711" y="307" width="45" height="45" fill="#C4C4C4"/>
<rect x="781" y="307" width="45" height="45" fill="#C4C4C4"/>
<rect x="851" y="307" width="45" height="45" fill="#C4C4C4"/>
<rect x="921" y="307" width="151" height="45" fill="#C4C4C4"/>
<rect x="992" y="177" width="80" height="110" fill="#C4C4C4"/>
<rect x="953" y="242" width="119" height="45" fill="#C4C4C4"/>
</svg>
