<svg width="1320" height="510" viewBox="0 0 1320 510" fill="none" xmlns="http://www.w3.org/2000/svg">
<g clip-path="url(#clip0)">
<g filter="url(#filter0_d)">
<path d="M0 15C0 6.71573 6.71573 0 15 0H1294C1302.28 0 1309 6.71573 1309 15V444.529C1309 452.191 1303.22 458.622 1295.61 459.442L1146.5 475.5L979.5 488.5L649 499L314 488.5L151.5 475.5L13.2788 459.534C5.71075 458.66 0 452.251 0 444.633V15Z" fill="#484848"/>
<rect x="36" y="31" width="50" height="40" fill="#C4C4C4"/>
<rect x="121" y="36" width="40" height="30" fill="#C4C4C4"/>
<rect x="201" y="36" width="40" height="30" fill="#C4C4C4"/>
<rect x="281" y="36" width="40" height="30" fill="#C4C4C4"/>
<rect x="531" y="36" width="40" height="30" fill="#C4C4C4"/>
<rect x="611" y="36" width="40" height="30" fill="#C4C4C4"/>
<rect x="691" y="36" width="40" height="30" fill="#C4C4C4"/>
<rect x="361" y="36" width="40" height="30" fill="#C4C4C4"/>
<rect x="451" y="36" width="40" height="30" fill="#C4C4C4"/>
<rect x="861" y="36" width="40" height="30" fill="#C4C4C4"/>
<rect x="941" y="36" width="40" height="30" fill="#C4C4C4"/>
<rect x="1021" y="36" width="40" height="30" fill="#C4C4C4"/>
<rect x="781" y="36" width="40" height="30" fill="#C4C4C4"/>
<rect x="1096" y="36" width="40" height="30" fill="#C4C4C4"/>
<rect x="1161" y="36" width="40" height="30" fill="#C4C4C4"/>
<rect x="1226" y="36" width="40" height="30" fill="#C4C4C4"/>
<rect x="1096" y="101" width="40" height="30" fill="#C4C4C4"/>
<rect x="1161" y="101" width="40" height="30" fill="#C4C4C4"/>
<rect x="1226" y="101" width="40" height="30" fill="#C4C4C4"/>
<rect x="1096" y="146" width="40" height="30" fill="#C4C4C4"/>
<rect x="1161" y="146" width="40" height="30" fill="#C4C4C4"/>
<rect x="1226" y="146" width="40" height="30" fill="#C4C4C4"/>
<rect x="1161" y="321" width="40" height="40" fill="#C4C4C4"/>
<rect x="1096" y="376" width="40" height="40" fill="#C4C4C4"/>
<rect x="1161" y="376" width="40" height="40" fill="#C4C4C4"/>
<rect x="1226" y="376" width="40" height="40" fill="#C4C4C4"/>
<rect x="36" y="101" width="45" height="45" fill="#C4C4C4"/>
<rect x="106" y="101" width="45" height="45" fill="#C4C4C4"/>
<rect x="176" y="101" width="45" height="45" fill="#C4C4C4"/>
<rect x="246" y="101" width="45" height="45" fill="#C4C4C4"/>
<rect x="316" y="101" width="45" height="45" fill="#C4C4C4"/>
<rect x="386" y="101" width="45" height="45" fill="#C4C4C4"/>
<rect x="456" y="101" width="45" height="45" fill="#C4C4C4"/>
<rect x="526" y="101" width="45" height="45" fill="#C4C4C4"/>
<rect x="596" y="101" width="45" height="45" fill="#C4C4C4"/>
<rect x="666" y="101" width="45" height="45" fill="#C4C4C4"/>
<rect x="736" y="101" width="45" height="45" fill="#C4C4C4"/>
<rect x="806" y="101" width="45" height="45" fill="#C4C4C4"/>
<rect x="876" y="101" width="45" height="45" fill="#C4C4C4"/>
<rect x="946" y="101" width="45" height="45" fill="#C4C4C4"/>
<rect x="1016" y="101" width="45" height="45" fill="#C4C4C4"/>
<rect x="36" y="361" width="55" height="45" fill="#C4C4C4"/>
<rect x="116" y="361" width="55" height="45" fill="#C4C4C4"/>
<rect x="196" y="361" width="55" height="45" fill="#C4C4C4"/>
<rect x="289" y="361" width="448" height="45" fill="#C4C4C4"/>
<rect x="766" y="361" width="55" height="45" fill="#C4C4C4"/>
<rect x="846" y="361" width="55" height="45" fill="#C4C4C4"/>
<rect x="926" y="361" width="55" height="45" fill="#C4C4C4"/>
<rect x="1006" y="361" width="55" height="45" fill="#C4C4C4"/>
<rect x="36" y="166" width="80" height="45" fill="#C4C4C4"/>
<rect x="141" y="166" width="45" height="45" fill="#C4C4C4"/>
<rect x="211" y="166" width="45" height="45" fill="#C4C4C4"/>
<rect x="281" y="166" width="45" height="45" fill="#C4C4C4"/>
<rect x="351" y="166" width="45" height="45" fill="#C4C4C4"/>
<rect x="421" y="166" width="45" height="45" fill="#C4C4C4"/>
<rect x="491" y="166" width="45" height="45" fill="#C4C4C4"/>
<rect x="561" y="166" width="45" height="45" fill="#C4C4C4"/>
<rect x="631" y="166" width="45" height="45" fill="#C4C4C4"/>
<rect x="701" y="166" width="45" height="45" fill="#C4C4C4"/>
<rect x="771" y="166" width="45" height="45" fill="#C4C4C4"/>
<rect x="841" y="166" width="45" height="45" fill="#C4C4C4"/>
<rect x="911" y="166" width="45" height="45" fill="#C4C4C4"/>
<rect x="36" y="231" width="112" height="45" fill="#C4C4C4"/>
<rect x="172" y="231" width="45" height="45" fill="#C4C4C4"/>
<rect x="242" y="231" width="45" height="45" fill="#C4C4C4"/>
<rect x="312" y="231" width="45" height="45" fill="#C4C4C4"/>
<rect x="382" y="231" width="45" height="45" fill="#C4C4C4"/>
<rect x="452" y="231" width="45" height="45" fill="#C4C4C4"/>
<rect x="522" y="231" width="45" height="45" fill="#C4C4C4"/>
<rect x="592" y="231" width="45" height="45" fill="#C4C4C4"/>
<rect x="662" y="231" width="45" height="45" fill="#C4C4C4"/>
<rect x="732" y="231" width="45" height="45" fill="#C4C4C4"/>
<rect x="802" y="231" width="45" height="45" fill="#C4C4C4"/>
<rect x="872" y="231" width="45" height="45" fill="#C4C4C4"/>
<rect x="36" y="296" width="149" height="45" fill="#C4C4C4"/>
<rect x="210" y="296" width="45" height="45" fill="#C4C4C4"/>
<rect x="280" y="296" width="45" height="45" fill="#C4C4C4"/>
<rect x="350" y="296" width="45" height="45" fill="#C4C4C4"/>
<rect x="420" y="296" width="45" height="45" fill="#C4C4C4"/>
<rect x="490" y="296" width="45" height="45" fill="#C4C4C4"/>
<rect x="560" y="296" width="45" height="45" fill="#C4C4C4"/>
<rect x="630" y="296" width="45" height="45" fill="#C4C4C4"/>
<rect x="700" y="296" width="45" height="45" fill="#C4C4C4"/>
<rect x="770" y="296" width="45" height="45" fill="#C4C4C4"/>
<rect x="840" y="296" width="45" height="45" fill="#C4C4C4"/>
<rect x="910" y="296" width="151" height="45" fill="#C4C4C4"/>
<rect x="981" y="166" width="80" height="110" fill="#C4C4C4"/>
<rect x="942" y="231" width="119" height="45" fill="#C4C4C4"/>
</g>
</g>
<defs>
<filter id="filter0_d" x="0" y="0" width="1323" height="513" filterUnits="userSpaceOnUse" color-interpolation-filters="sRGB">
<feFlood flood-opacity="0" result="BackgroundImageFix"/>
<feColorMatrix in="SourceAlpha" type="matrix" values="0 0 0 0 0 0 0 0 0 0 0 0 0 0 0 0 0 0 127 0"/>
<feOffset dx="10" dy="10"/>
<feGaussianBlur stdDeviation="2"/>
<feColorMatrix type="matrix" values="0 0 0 0 0 0 0 0 0 0 0 0 0 0 0 0 0 0 0.25 0"/>
<feBlend mode="normal" in2="BackgroundImageFix" result="effect1_dropShadow"/>
<feBlend mode="normal" in="SourceGraphic" in2="effect1_dropShadow" result="shape"/>
</filter>
<clipPath id="clip0">
<rect width="1320" height="510" fill="white"/>
</clipPath>
</defs>
</svg>
