<svg width="509" height="350" viewBox="0 0 509 350" fill="none" xmlns="http://www.w3.org/2000/svg">
<path d="M72.5 66.5L47.5 269" stroke="black" stroke-width="6"/>
<path d="M63.5 140.5L126.5 114L92 282" stroke="black" stroke-width="6"/>
<path d="M63.5002 139.5C111.667 107.333 175.619 10.6266 75.5002 45.4999C31 61 17.5 95 47 119.5L22 318" stroke="black" stroke-width="6"/>
<path d="M162 9L209 14L156.5 30H214.5" stroke="black" stroke-width="6"/>
<path d="M258 57.5L236 272.5" stroke="black" stroke-width="6"/>
<path d="M312.374 60.5C301.536 93 273.487 157.7 248 156.5C272.195 158.333 318.943 184.1 312.374 272.5" stroke="black" stroke-width="6"/>
<path d="M355 77.5L336 272.5" stroke="black" stroke-width="6"/>
<path d="M404.441 80.5C394.77 109.474 369.742 167.155 347 166.085C368.589 167.719 410.303 190.691 404.441 269.5" stroke="black" stroke-width="6"/>
<path d="M395 203L436 271L490.5 145.5L406.5 339L22.5 317" stroke="black" stroke-width="6"/>
<path d="M408 196.5L434 240.5L460.5 176.5" stroke="black" stroke-width="6"/>
<path d="M286.114 48.5123C298.095 48.2313 298.095 66.2157 285.297 66.4967C272.249 66.7833 273.315 47.9503 286.114 48.5123Z" stroke="black" stroke-width="6"/>
<path d="M375.155 70.2087C382.323 65.0477 389.814 75.9835 382.148 81.4848C374.334 87.0932 367.139 75.1972 375.155 70.2087Z" stroke="black" stroke-width="6"/>
<path d="M314 96.5C305 121.5 290 143 280.5 152.5C297.5 161 316 180.5 323.5 213.5" stroke="black" stroke-width="6"/>
<path d="M406 112.5C397.5 131 391.5 146.5 376.5 163.5C388.5 170.5 395 178 409 198" stroke="black" stroke-width="6"/>
<path d="M55 70.5L51 103.5" stroke="black" stroke-width="6"/>
<path d="M157.5 44.5H183.25M209 44.5H183.25M183.25 44.5L164 149.5L187.5 169.5L167.5 272.5H135H202" stroke="black" stroke-width="6"/>
<path d="M184 110.5L178 144L192.5 156" stroke="black" stroke-width="6"/>
<path d="M166 210.5L173.522 175.513L159.571 162.878" stroke="black" stroke-width="6"/>
<path d="M27 269.5H67" stroke="black" stroke-width="6"/>
<path d="M221 272.5H251" stroke="black" stroke-width="6"/>
<path d="M324 272.5H349" stroke="black" stroke-width="6"/>
<path d="M482.884 143.883L496.823 149.423" stroke="black" stroke-width="6"/>
</svg>
