<svg width="478" height="335" viewBox="0 0 478 335" fill="none" xmlns="http://www.w3.org/2000/svg">
<path d="M52.5 60L27.5 262.5" stroke="black" stroke-width="4"/>
<path d="M43.5 134L106.5 107.5L72 275.5" stroke="black" stroke-width="4"/>
<path d="M43.5002 133C91.6668 100.833 155.619 4.12661 55.5002 38.9999C11 54.5 -2.5 88.5 27 113L2 311.5" stroke="black" stroke-width="4"/>
<path d="M142 2.5L189 7.5L136.5 23.5H194.5" stroke="black" stroke-width="4"/>
<path d="M238 51L216 266" stroke="black" stroke-width="4"/>
<path d="M292.374 54C281.536 86.5 253.487 151.2 228 150C252.195 151.833 298.943 177.6 292.374 266" stroke="black" stroke-width="4"/>
<path d="M335 71L316 266" stroke="black" stroke-width="4"/>
<path d="M384.441 74C374.77 102.974 349.742 160.655 327 159.585C348.589 161.219 390.303 184.191 384.441 263" stroke="black" stroke-width="4"/>
<path d="M375 196.5L416 264.5L470.5 139L386.5 332.5L2.5 310.5" stroke="black" stroke-width="4"/>
<path d="M388 192L414 236L440.5 172" stroke="black" stroke-width="4"/>
<path d="M266.114 42.0123C278.095 41.7313 278.095 59.7157 265.297 59.9967C252.249 60.2833 253.315 41.4503 266.114 42.0123Z" stroke="black" stroke-width="4"/>
<path d="M355.155 63.7087C362.323 58.5477 369.814 69.4835 362.148 74.9848C354.334 80.5932 347.139 68.6972 355.155 63.7087Z" stroke="black" stroke-width="4"/>
<path d="M289 90C280 115 267 137.5 254 147C269.5 151.5 291 174 298.5 207" stroke="black" stroke-width="4"/>
<path d="M379.5 115.5C373 132.5 361.5 149.5 351.5 157C361 161.5 372.5 164.5 389 193.5" stroke="black" stroke-width="4"/>
<path d="M35 64L31 97" stroke="black" stroke-width="4"/>
<path d="M137.5 38H163.25M189 38H163.25M163.25 38L144 143L167.5 163L147.5 266H115H182" stroke="black" stroke-width="4"/>
<path d="M161 106L155 139.5L169.5 151.5" stroke="black" stroke-width="4"/>
<path d="M149 202L156.522 167.013L142.571 154.378" stroke="black" stroke-width="4"/>
<path d="M7 263H47" stroke="black" stroke-width="4"/>
<path d="M201 266H231" stroke="black" stroke-width="4"/>
<path d="M304 266H329" stroke="black" stroke-width="4"/>
<path d="M462.884 137.383L476.823 142.923" stroke="black" stroke-width="4"/>
</svg>
