<svg width="481" height="339" viewBox="0 0 481 339" fill="none" xmlns="http://www.w3.org/2000/svg">
<path d="M54.5 62L29.5 264.5" stroke="black" stroke-width="8"/>
<path d="M45.5 136L108.5 109.5L74 277.5" stroke="black" stroke-width="8"/>
<path d="M45.5002 135C93.6668 102.833 157.619 6.12661 57.5002 40.9999C13 56.5 -0.5 90.5 29 115L4 313.5" stroke="black" stroke-width="8"/>
<path d="M144 4.5L191 9.5L138.5 25.5H196.5" stroke="black" stroke-width="8"/>
<path d="M240 53L218 268" stroke="black" stroke-width="8"/>
<path d="M294.374 56C283.536 88.5 255.487 153.2 230 152C254.195 153.833 300.943 179.6 294.374 268" stroke="black" stroke-width="8"/>
<path d="M337 73L318 268" stroke="black" stroke-width="8"/>
<path d="M386.441 76C376.77 104.974 351.742 162.655 329 161.585C350.589 163.219 392.303 186.191 386.441 265" stroke="black" stroke-width="8"/>
<path d="M377 198.5L418 266.5L472.5 141L388.5 334.5L4.5 312.5" stroke="black" stroke-width="8"/>
<path d="M390 192L416 236L442.5 172" stroke="black" stroke-width="8"/>
<path d="M268.114 44.0123C280.095 43.7313 280.095 61.7157 267.297 61.9967C254.249 62.2833 255.315 43.4503 268.114 44.0123Z" stroke="black" stroke-width="8"/>
<path d="M357.155 65.7087C364.323 60.5477 371.814 71.4835 364.148 76.9848C356.334 82.5932 349.139 70.6972 357.155 65.7087Z" stroke="black" stroke-width="8"/>
<path d="M296 92C287 117 272 138.5 262.5 148C279.5 156.5 298 176 305.5 209" stroke="black" stroke-width="8"/>
<path d="M388 108C379.5 126.5 373.5 142 358.5 159C370.5 166 377 173.5 391 193.5" stroke="black" stroke-width="8"/>
<path d="M37 66L33 99" stroke="black" stroke-width="8"/>
<path d="M139.5 40H165.25M191 40H165.25M165.25 40L146 145L169.5 165L149.5 268H117H184" stroke="black" stroke-width="8"/>
<path d="M166 106L160 139.5L174.5 151.5" stroke="black" stroke-width="8"/>
<path d="M148 206L155.522 171.013L141.571 158.378" stroke="black" stroke-width="8"/>
<path d="M9 265H49" stroke="black" stroke-width="8"/>
<path d="M203 268H233" stroke="black" stroke-width="8"/>
<path d="M306 268H331" stroke="black" stroke-width="8"/>
<path d="M464.884 139.383L478.823 144.923" stroke="black" stroke-width="8"/>
</svg>
