<svg width="479" height="337" viewBox="0 0 479 337" fill="none" xmlns="http://www.w3.org/2000/svg">
<path d="M53.5 61L28.5 263.5" stroke="black" stroke-width="6"/>
<path d="M44.5 135L107.5 108.5L73 276.5" stroke="black" stroke-width="6"/>
<path d="M44.5002 134C92.6668 101.833 156.619 5.12661 56.5002 39.9999C12 55.5 -1.5 89.5 28 114L3 312.5" stroke="black" stroke-width="6"/>
<path d="M143 3.5L190 8.5L137.5 24.5H195.5" stroke="black" stroke-width="6"/>
<path d="M239 52L217 267" stroke="black" stroke-width="6"/>
<path d="M293.374 55C282.536 87.5 254.487 152.2 229 151C253.195 152.833 299.943 178.6 293.374 267" stroke="black" stroke-width="6"/>
<path d="M336 72L317 267" stroke="black" stroke-width="6"/>
<path d="M385.441 75C375.77 103.974 350.742 161.655 328 160.585C349.589 162.219 391.303 185.191 385.441 264" stroke="black" stroke-width="6"/>
<path d="M376 197.5L417 265.5L471.5 140L387.5 333.5L3.5 311.5" stroke="black" stroke-width="6"/>
<path d="M389 193L415 237L441.5 173" stroke="black" stroke-width="6"/>
<path d="M267.114 43.0123C279.095 42.7313 279.095 60.7157 266.297 60.9967C253.249 61.2833 254.315 42.4503 267.114 43.0123Z" stroke="black" stroke-width="6"/>
<path d="M356.155 64.7087C363.323 59.5477 370.814 70.4835 363.148 75.9848C355.334 81.5932 348.139 69.6972 356.155 64.7087Z" stroke="black" stroke-width="6"/>
<path d="M294 91C285 116 272 138.5 259 148C274.5 152.5 296 175 303.5 208" stroke="black" stroke-width="6"/>
<path d="M385 118C378.5 135 370 150 360 157.5C369.5 162 373.5 165.5 390 194.5" stroke="black" stroke-width="6"/>
<path d="M36 65L32 98" stroke="black" stroke-width="6"/>
<path d="M138.5 39H164.25M190 39H164.25M164.25 39L145 144L168.5 164L148.5 267H116H183" stroke="black" stroke-width="6"/>
<path d="M163 106L157 139.5L171.5 151.5" stroke="black" stroke-width="6"/>
<path d="M149 204L156.522 169.013L142.571 156.378" stroke="black" stroke-width="6"/>
<path d="M8 264H48" stroke="black" stroke-width="6"/>
<path d="M202 267H232" stroke="black" stroke-width="6"/>
<path d="M305 267H330" stroke="black" stroke-width="6"/>
<path d="M463.884 138.383L477.823 143.923" stroke="black" stroke-width="6"/>
</svg>
